<svg width="17" height="24" viewBox="0 0 17 24" fill="none" xmlns="http://www.w3.org/2000/svg">
<g clip-path="url(#clip0_464_206)">
<path d="M0.5 2.25116C0.5 1.00897 1.39583 0.00115967 2.5 0.00115967V2.25116V20.6918L7.92083 16.3371C8.26667 16.0558 8.7375 16.0558 9.08333 16.3371L14.5 20.6918V2.25116H2.5V0.00115967H14.5C15.6042 0.00115967 16.5 1.00897 16.5 2.25116V22.8762C16.5 23.298 16.2917 23.6824 15.9583 23.8746C15.625 24.0668 15.225 24.034 14.9208 23.7902L8.5 18.634L2.07917 23.7902C1.775 24.034 1.375 24.0668 1.04167 23.8746C0.708333 23.6824 0.5 23.298 0.5 22.8762V2.25116Z" fill="#E4F3F6"/>
</g>
<defs>
<clipPath id="clip0_464_206">
<rect width="16" height="23.9977" fill="white" transform="translate(0.5 0.00115967)"/>
</clipPath>
</defs>
</svg>
