<svg width="24" height="21" viewBox="0 0 24 21" fill="none" xmlns="http://www.w3.org/2000/svg">
<path d="M5.59688 0.0918525C6.68906 -0.09096 7.79063 0.00279015 8.8125 0.34029L11.1469 3.9731L7.6125 7.50748C7.54219 7.57779 7.5 7.67623 7.50469 7.77935C7.50938 7.88248 7.55156 7.97623 7.62656 8.04654L12.8766 12.9215C13.0125 13.0481 13.2234 13.0575 13.3688 12.9356C13.5141 12.8137 13.5469 12.6075 13.4484 12.4481L10.6172 7.84967L14.8688 4.30591C14.9906 4.20748 15.0328 4.03873 14.9813 3.89341L13.9125 0.92154C15.2484 0.138728 16.8375 -0.16596 18.3984 0.0965401C21.6328 0.630915 24 3.42467 24 6.70123V6.9731C24 8.91842 23.1938 10.7794 21.7687 12.1059L13.2984 20.0137C12.9469 20.3419 12.4828 20.5247 12 20.5247C11.5172 20.5247 11.0531 20.3419 10.7016 20.0137L2.23125 12.1059C0.80625 10.7794 0 8.91842 0 6.9731V6.70123C0 3.42467 2.36719 0.630915 5.59688 0.0918525Z" fill="#E4F3F6"/>
</svg>
