<svg width="24" height="24" viewBox="0 0 24 24" fill="none" xmlns="http://www.w3.org/2000/svg">
<path d="M5.59688 1.09185C6.68906 0.90904 7.79063 1.00279 8.8125 1.34029L11.1469 4.9731L7.6125 8.50748C7.54219 8.57779 7.5 8.67623 7.50469 8.77935C7.50938 8.88248 7.55156 8.97623 7.62656 9.04654L12.8766 13.9215C13.0125 14.0481 13.2234 14.0575 13.3688 13.9356C13.5141 13.8137 13.5469 13.6075 13.4484 13.4481L10.6172 8.84967L14.8688 5.30591C14.9906 5.20748 15.0328 5.03873 14.9813 4.89341L13.9125 1.92154C15.2484 1.13873 16.8375 0.83404 18.3984 1.09654C21.6328 1.63092 24 4.42467 24 7.70123V7.9731C24 9.91842 23.1937 11.7794 21.7687 13.1059L13.2984 21.0137C12.9469 21.3419 12.4828 21.5247 12 21.5247C11.5172 21.5247 11.0531 21.3419 10.7016 21.0137L2.23125 13.1059C0.80625 11.7794 0 9.91842 0 7.9731V7.70123C0 4.42467 2.36719 1.63091 5.59688 1.09185Z" fill="#4037AA"/>
</svg>
