<svg width="24" height="24" viewBox="0 0 24 24" fill="none" xmlns="http://www.w3.org/2000/svg">
<g clip-path="url(#clip0_464_202)">
<path d="M6.09688 1.09185C7.18906 0.90904 8.29063 1.00279 9.3125 1.34029L11.6469 4.9731L8.1125 8.50748C8.04219 8.57779 8 8.67623 8.00469 8.77935C8.00938 8.88248 8.05156 8.97623 8.12656 9.04654L13.3766 13.9215C13.5125 14.0481 13.7234 14.0575 13.8688 13.9356C14.0141 13.8137 14.0469 13.6075 13.9484 13.4481L11.1172 8.84967L15.3688 5.30591C15.4906 5.20748 15.5328 5.03873 15.4813 4.89341L14.4125 1.92154C15.7484 1.13873 17.3375 0.83404 18.8984 1.09654C22.1328 1.63092 24.5 4.42467 24.5 7.70123V7.9731C24.5 9.91842 23.6938 11.7794 22.2687 13.1059L13.7984 21.0137C13.4469 21.3419 12.9828 21.5247 12.5 21.5247C12.0172 21.5247 11.5531 21.3419 11.2016 21.0137L2.73125 13.1059C1.30625 11.7794 0.5 9.91842 0.5 7.9731V7.70123C0.5 4.42467 2.86719 1.63091 6.09688 1.09185Z" fill="#E4F3F6"/>
</g>
<defs>
<clipPath id="clip0_464_202">
<rect width="24" height="24" fill="white" transform="translate(0.5)"/>
</clipPath>
</defs>
</svg>
