<svg width="24" height="24" viewBox="0 0 24 24" fill="none" xmlns="http://www.w3.org/2000/svg">
<path d="M2.23125 13.1054L10.7016 21.0132C11.0531 21.3414 11.5172 21.5242 12 21.5242C12.4828 21.5242 12.9469 21.3414 13.2984 21.0132L21.7687 13.1054C23.1938 11.7789 24 9.91793 24 7.97261V7.70074C24 4.42418 21.6328 1.63043 18.4031 1.09136C16.2656 0.735114 14.0906 1.43355 12.5625 2.96168L12 3.52418L11.4375 2.96168C9.90938 1.43355 7.73438 0.735114 5.59688 1.09136C2.36719 1.63043 0 4.42418 0 7.70074V7.97261C0 9.91793 0.80625 11.7789 2.23125 13.1054Z" fill="#E4F3F6"/>
</svg>
