<svg width="40" height="41" viewBox="0 0 40 41" fill="none" xmlns="http://www.w3.org/2000/svg">
<path d="M29.6338 19.7816C30.1221 20.3396 30.1221 21.2459 29.6338 21.8039L24.6335 27.5182C24.1452 28.0762 23.3522 28.0762 22.8639 27.5182C22.3756 26.9602 22.3756 26.0539 22.8639 25.4959L25.7312 22.2191H17.5004C16.8089 22.2191 16.2503 21.5807 16.2503 20.7905C16.2503 20.0003 16.8089 19.362 17.5004 19.362H25.7312L22.8639 16.0852C22.3756 15.5271 22.3756 14.6209 22.8639 14.0628C23.3522 13.5048 24.1452 13.5048 24.6335 14.0628L29.6338 19.7771V19.7816ZM16.2503 27.9334C16.9417 27.9334 17.5004 28.5718 17.5004 29.362C17.5004 30.1521 16.9417 30.7905 16.2503 30.7905H13.7502C11.6798 30.7905 10 28.8709 10 26.5048V15.0762C10 12.7102 11.6798 10.7905 13.7502 10.7905H16.2503C16.9417 10.7905 17.5004 11.4289 17.5004 12.2191C17.5004 13.0093 16.9417 13.6477 16.2503 13.6477H13.7502C13.0587 13.6477 12.5001 14.2861 12.5001 15.0762V26.5048C12.5001 27.295 13.0587 27.9334 13.7502 27.9334H16.2503Z" fill="#DF0606"/>
</svg>
