<svg width="6" height="26" viewBox="0 0 6 26" fill="none" xmlns="http://www.w3.org/2000/svg">
<g clip-path="url(#clip0_464_191)">
<path d="M2.875 8.125C2.17881 8.125 1.51113 7.84844 1.01884 7.35616C0.526562 6.86387 0.25 6.19619 0.25 5.5C0.25 4.80381 0.526562 4.13613 1.01884 3.64384C1.51113 3.15156 2.17881 2.875 2.875 2.875C3.57119 2.875 4.23887 3.15156 4.73116 3.64384C5.22344 4.13613 5.5 4.80381 5.5 5.5C5.5 6.19619 5.22344 6.86387 4.73116 7.35616C4.23887 7.84844 3.57119 8.125 2.875 8.125ZM2.875 15.625C2.17881 15.625 1.51113 15.3484 1.01884 14.8562C0.526562 14.3639 0.25 13.6962 0.25 13C0.25 12.3038 0.526562 11.6361 1.01884 11.1438C1.51113 10.6516 2.17881 10.375 2.875 10.375C3.57119 10.375 4.23887 10.6516 4.73116 11.1438C5.22344 11.6361 5.5 12.3038 5.5 13C5.5 13.6962 5.22344 14.3639 4.73116 14.8562C4.23887 15.3484 3.57119 15.625 2.875 15.625ZM5.5 20.5C5.5 21.1962 5.22344 21.8639 4.73116 22.3562C4.23887 22.8484 3.57119 23.125 2.875 23.125C2.17881 23.125 1.51113 22.8484 1.01884 22.3562C0.526562 21.8639 0.25 21.1962 0.25 20.5C0.25 19.8038 0.526562 19.1361 1.01884 18.6438C1.51113 18.1516 2.17881 17.875 2.875 17.875C3.57119 17.875 4.23887 18.1516 4.73116 18.6438C5.22344 19.1361 5.5 19.8038 5.5 20.5Z" fill="#E4F3F6"/>
</g>
<defs>
<clipPath id="clip0_464_191">
<rect width="5.25" height="24.25" fill="white" transform="matrix(1 0 0 -1 0.25 25.125)"/>
</clipPath>
</defs>
</svg>
