<svg width="16" height="24" viewBox="0 0 16 24" fill="none" xmlns="http://www.w3.org/2000/svg">
<path d="M0 2.25116C0 1.00897 0.895833 0.00115967 2 0.00115967V2.25116V20.6918L7.42083 16.3371C7.76667 16.0558 8.2375 16.0558 8.58333 16.3371L14 20.6918V2.25116H2V0.00115967H14C15.1042 0.00115967 16 1.00897 16 2.25116V22.8762C16 23.298 15.7917 23.6824 15.4583 23.8746C15.125 24.0668 14.725 24.034 14.4208 23.7902L8 18.634L1.57917 23.7902C1.275 24.034 0.875 24.0668 0.541667 23.8746C0.208333 23.6824 0 23.298 0 22.8762V2.25116Z" fill="#E4F3F6"/>
</svg>
