<svg width="25" height="24" viewBox="0 0 25 24" fill="none" xmlns="http://www.w3.org/2000/svg">
<path d="M22.5 22L18.5 18H8.5C7.95 18 7.47917 17.8042 7.0875 17.4125C6.69583 17.0208 6.5 16.55 6.5 16V15H17.5C18.05 15 18.5208 14.8042 18.9125 14.4125C19.3042 14.0208 19.5 13.55 19.5 13V6H20.5C21.05 6 21.5208 6.19583 21.9125 6.5875C22.3042 6.97917 22.5 7.45 22.5 8V22ZM4.5 12.175L5.675 11H15.5V4H4.5V12.175ZM2.5 17V4C2.5 3.45 2.69583 2.97917 3.0875 2.5875C3.47917 2.19583 3.95 2 4.5 2H15.5C16.05 2 16.5208 2.19583 16.9125 2.5875C17.3042 2.97917 17.5 3.45 17.5 4V11C17.5 11.55 17.3042 12.0208 16.9125 12.4125C16.5208 12.8042 16.05 13 15.5 13H6.5L2.5 17Z" fill="#E4F3F6"/>
</svg>
