<svg width="40" height="40" viewBox="0 0 40 40" fill="none" xmlns="http://www.w3.org/2000/svg">
<path d="M20.5674 18.4219L10.5869 28.3984C10.2197 28.7656 10.2197 29.3594 10.5869 29.7227C10.9541 30.0859 11.5479 30.0898 11.9111 29.7227L14.1377 27.4961H16.7939C18.7354 27.4961 20.6182 26.9336 22.2236 25.8945C22.6572 25.6133 22.4385 24.9961 21.9189 24.9961C21.7197 24.9961 21.5596 24.8359 21.5596 24.6367C21.5596 24.4766 21.665 24.3398 21.8135 24.293L24.9775 23.3438C25.0752 23.3125 25.165 23.2617 25.2393 23.1875L26.1143 22.3125C26.5088 21.918 26.2275 21.2461 25.6729 21.2461H24.415C24.2158 21.2461 24.0557 21.0859 24.0557 20.8867C24.0557 20.7266 24.1611 20.5898 24.3096 20.543L28.6846 19.2305C28.8408 19.1836 28.9736 19.0781 29.0479 18.9297C29.4697 18.1094 29.6885 17.1914 29.6885 16.25C29.6885 14.6484 29.0518 13.1133 27.9189 11.9805L27.7041 11.7656C26.5752 10.6367 25.04 10 23.4385 10C21.8369 10 20.3018 10.6367 19.1689 11.7695L15.1182 15.8203C13.2432 17.6953 12.1885 20.2383 12.1885 22.8906V25.0508L19.5947 17.6484C19.8369 17.4062 20.2354 17.4062 20.4775 17.6484C20.6885 17.8594 20.7158 18.1797 20.5635 18.4219H20.5674Z" fill="#E4F3F6"/>
</svg>
