<svg width="40" height="41" viewBox="0 0 40 41" fill="none" xmlns="http://www.w3.org/2000/svg">
<path d="M20 30.7905C22.6522 30.7905 25.1957 29.737 27.0711 27.8616C28.9464 25.9862 30 23.4427 30 20.7905C30 18.1384 28.9464 15.5948 27.0711 13.7195C25.1957 11.8441 22.6522 10.7905 20 10.7905C17.3478 10.7905 14.8043 11.8441 12.9289 13.7195C11.0536 15.5948 10 18.1384 10 20.7905C10 23.4427 11.0536 25.9862 12.9289 27.8616C14.8043 29.737 17.3478 30.7905 20 30.7905ZM18.4375 23.9155H19.375V21.4155H18.4375C17.918 21.4155 17.5 20.9976 17.5 20.478C17.5 19.9585 17.918 19.5405 18.4375 19.5405H20.3125C20.832 19.5405 21.25 19.9585 21.25 20.478V23.9155H21.5625C22.082 23.9155 22.5 24.3335 22.5 24.853C22.5 25.3726 22.082 25.7905 21.5625 25.7905H18.4375C17.918 25.7905 17.5 25.3726 17.5 24.853C17.5 24.3335 17.918 23.9155 18.4375 23.9155ZM20 15.7905C20.3315 15.7905 20.6495 15.9222 20.8839 16.1566C21.1183 16.3911 21.25 16.709 21.25 17.0405C21.25 17.372 21.1183 17.69 20.8839 17.9244C20.6495 18.1588 20.3315 18.2905 20 18.2905C19.6685 18.2905 19.3505 18.1588 19.1161 17.9244C18.8817 17.69 18.75 17.372 18.75 17.0405C18.75 16.709 18.8817 16.3911 19.1161 16.1566C19.3505 15.9222 19.6685 15.7905 20 15.7905Z" fill="#E4F3F6"/>
</svg>
