<svg width="40" height="40" viewBox="0 0 40 40" fill="none" xmlns="http://www.w3.org/2000/svg">
<path d="M15.6259 23.7466C20.1141 23.7466 23.7509 20.6685 23.7509 16.8716C23.7509 13.0747 20.1141 9.99658 15.6259 9.99658C11.1376 9.99658 7.50085 13.0747 7.50085 16.8716C7.50085 18.3794 8.07507 19.7739 9.04773 20.9106C8.91101 21.2778 8.70789 21.6021 8.49304 21.8755C8.30554 22.1177 8.11414 22.3052 7.97351 22.4341C7.9032 22.4966 7.8446 22.5474 7.80554 22.5786C7.78601 22.5942 7.77039 22.606 7.76257 22.6099L7.75476 22.6177C7.53992 22.7778 7.44617 23.0591 7.5321 23.313C7.61804 23.5669 7.85632 23.7466 8.12585 23.7466C8.97742 23.7466 9.83679 23.5278 10.5516 23.2583C10.911 23.1216 11.2469 22.9692 11.536 22.813C12.7391 23.4067 14.1337 23.7466 15.6259 23.7466ZM25.0009 16.8716C25.0009 21.2583 21.1298 24.563 16.5438 24.9575C17.493 27.8638 20.6415 29.9966 24.3759 29.9966C25.868 29.9966 27.2626 29.6567 28.4657 29.063C28.7587 29.2192 29.0907 29.3716 29.4501 29.5083C30.1649 29.7778 31.0243 29.9966 31.8759 29.9966C32.1454 29.9966 32.3876 29.8208 32.4696 29.563C32.5516 29.3052 32.4618 29.0239 32.243 28.8638L32.2352 28.856C32.2274 28.8481 32.2118 28.8403 32.1923 28.8247C32.1532 28.7935 32.0946 28.7466 32.0243 28.6802C31.8837 28.5513 31.6923 28.3638 31.5048 28.1216C31.2899 27.8481 31.0868 27.52 30.9501 27.1567C31.9227 26.0239 32.4969 24.6294 32.4969 23.1177C32.4969 19.4927 29.1805 16.52 24.9735 16.2622C24.9891 16.4614 24.9969 16.6646 24.9969 16.8677L25.0009 16.8716Z" fill="#E4F3F6"/>
</svg>
