<svg width="43" height="40" viewBox="0 0 43 40" fill="none" xmlns="http://www.w3.org/2000/svg">
<path d="M31.1852 10.6382C30.2014 9.78271 28.6111 9.78271 27.6273 10.6382L26.2752 11.8101L30.673 15.6343L32.0252 14.4585C33.009 13.603 33.009 12.2202 32.0252 11.3647L31.1852 10.6382ZM17.7445 19.2319C17.4705 19.4702 17.2594 19.7632 17.1381 20.0874L15.8084 23.5562C15.6781 23.8921 15.7814 24.2632 16.0689 24.5171C16.3564 24.771 16.7832 24.8569 17.174 24.7437L21.1631 23.5874C21.5314 23.4819 21.8684 23.2983 22.1469 23.0601L29.6623 16.521L25.26 12.6929L17.7445 19.2319ZM14.3125 12.2905C11.9316 12.2905 10 13.9702 10 16.0405V26.0405C10 28.1108 11.9316 29.7905 14.3125 29.7905H25.8125C28.1934 29.7905 30.125 28.1108 30.125 26.0405V22.2905C30.125 21.5991 29.4826 21.0405 28.6875 21.0405C27.8924 21.0405 27.25 21.5991 27.25 22.2905V26.0405C27.25 26.7319 26.6076 27.2905 25.8125 27.2905H14.3125C13.5174 27.2905 12.875 26.7319 12.875 26.0405V16.0405C12.875 15.3491 13.5174 14.7905 14.3125 14.7905H18.625C19.4201 14.7905 20.0625 14.2319 20.0625 13.5405C20.0625 12.8491 19.4201 12.2905 18.625 12.2905H14.3125Z" fill="#E4F3F6"/>
</svg>
