<svg width="25" height="24" viewBox="0 0 25 24" fill="none" xmlns="http://www.w3.org/2000/svg">
<g clip-path="url(#clip0_464_199)">
<path d="M2.73125 13.1054L11.2016 21.0132C11.5531 21.3414 12.0172 21.5242 12.5 21.5242C12.9828 21.5242 13.4469 21.3414 13.7984 21.0132L22.2687 13.1054C23.6938 11.7789 24.5 9.91793 24.5 7.97261V7.70074C24.5 4.42418 22.1328 1.63043 18.9031 1.09136C16.7656 0.735114 14.5906 1.43355 13.0625 2.96168L12.5 3.52418L11.9375 2.96168C10.4094 1.43355 8.23438 0.735114 6.09688 1.09136C2.86719 1.63043 0.5 4.42418 0.5 7.70074V7.97261C0.5 9.91793 1.30625 11.7789 2.73125 13.1054Z" fill="#E4F3F6"/>
</g>
<defs>
<clipPath id="clip0_464_199">
<rect width="24" height="24" fill="white" transform="translate(0.5)"/>
</clipPath>
</defs>
</svg>
