<svg width="20" height="21" viewBox="0 0 20 21" fill="none" xmlns="http://www.w3.org/2000/svg">
<rect width="19.4444" height="21" fill="#1A1A1A"/>
<path d="M5.02094 18.3175L12.3601 10.8575L15.8138 14.5875M5.02094 18.3175H13.6552C15.0858 18.3175 16.2455 17.065 16.2455 15.52V10.8575M5.02094 18.3175C3.59037 18.3175 2.43066 17.065 2.43066 15.52V6.19501C2.43066 4.64999 3.59037 3.39751 5.02094 3.39751H10.6332M15.382 7.90001L15.382 5.26251M15.382 5.26251L15.382 2.625M15.382 5.26251L12.9399 5.26251M15.382 5.26251L17.8242 5.26251M7.61122 7.59376C7.61122 8.36626 7.03136 8.9925 6.31608 8.9925C5.60079 8.9925 5.02094 8.36626 5.02094 7.59376C5.02094 6.82125 5.60079 6.19501 6.31608 6.19501C7.03136 6.19501 7.61122 6.82125 7.61122 7.59376Z" stroke="white" stroke-width="2" stroke-linecap="round" stroke-linejoin="round"/>
</svg>
