<svg width="32" height="32" viewBox="0 0 32 32" fill="none" xmlns="http://www.w3.org/2000/svg">
<rect width="32" height="32" rx="8" fill="#030909"/>
<g clip-path="url(#clip0_585_1049)">
<mask id="mask0_585_1049" style="mask-type:luminance" maskUnits="userSpaceOnUse" x="10" y="8" width="13" height="16">
<path d="M22.1765 8H10.1765V24H22.1765V8Z" fill="white"/>
</mask>
<g mask="url(#mask0_585_1049)">
<path d="M11.4296 22.5969L11.0796 22.8781C10.9796 22.9563 10.8577 23 10.7327 23C10.4265 23 10.1765 22.75 10.1765 22.4437V14C10.1765 10.6875 12.864 8 16.1765 8C19.4889 8 22.1765 10.6875 22.1765 14V22.4437C22.1765 22.75 21.9265 23 21.6202 23C21.4952 23 21.3733 22.9563 21.2733 22.8781L20.9233 22.5969C20.5046 22.2625 19.8983 22.3156 19.5452 22.7188L18.5921 23.8125C18.489 23.9312 18.3358 24 18.1765 24C18.0171 24 17.8671 23.9312 17.7608 23.8125L16.9296 22.8594C16.5327 22.4031 15.8233 22.4031 15.4233 22.8594L14.5921 23.8125C14.489 23.9312 14.3358 24 14.1764 24C14.0171 24 13.8671 23.9312 13.7608 23.8125L12.8077 22.7188C12.4546 22.3156 11.8483 22.2625 11.4296 22.5969ZM15.1765 14C15.1765 13.7348 15.0711 13.4804 14.8836 13.2929C14.696 13.1054 14.4417 13 14.1764 13C13.9112 13 13.6569 13.1054 13.4694 13.2929C13.2818 13.4804 13.1765 13.7348 13.1765 14C13.1765 14.2652 13.2818 14.5196 13.4694 14.7071C13.6569 14.8946 13.9112 15 14.1764 15C14.4417 15 14.696 14.8946 14.8836 14.7071C15.0711 14.5196 15.1765 14.2652 15.1765 14ZM18.1765 15C18.4417 15 18.696 14.8946 18.8835 14.7071C19.0711 14.5196 19.1765 14.2652 19.1765 14C19.1765 13.7348 19.0711 13.4804 18.8835 13.2929C18.696 13.1054 18.4417 13 18.1765 13C17.9112 13 17.6569 13.1054 17.4693 13.2929C17.2818 13.4804 17.1764 13.7348 17.1764 14C17.1764 14.2652 17.2818 14.5196 17.4693 14.7071C17.6569 14.8946 17.9112 15 18.1765 15Z" fill="#E4F3F6"/>
</g>
<path fill-rule="evenodd" clip-rule="evenodd" d="M16 19.0222C20.9706 19.0222 25 18.6243 25 18.1333C25 17.6424 20.9706 17.2444 16 17.2444C11.0294 17.2444 7 17.6424 7 18.1333C7 18.6243 11.0294 19.0222 16 19.0222ZM16 18.8444C20.5807 18.8444 24.2941 18.4279 24.2941 18.1333C24.2941 17.8388 20.5807 17.4222 16 17.4222C11.4193 17.4222 7.70588 17.8388 7.70588 18.1333C7.70588 18.4279 11.4193 18.8444 16 18.8444Z" fill="#98D5DC"/>
<path fill-rule="evenodd" clip-rule="evenodd" d="M10.1765 14C10.1765 10.6875 12.864 8 16.1765 8C19.4889 8 22.1765 10.6875 22.1765 14V17.9556H10.1765V14ZM14.8836 13.2929C15.0711 13.4804 15.1765 13.7348 15.1765 14C15.1765 14.2652 15.0711 14.5196 14.8836 14.7071C14.696 14.8946 14.4417 15 14.1764 15C13.9112 15 13.6569 14.8946 13.4694 14.7071C13.2818 14.5196 13.1765 14.2652 13.1765 14C13.1765 13.7348 13.2818 13.4804 13.4694 13.2929C13.6569 13.1054 13.9112 13 14.1764 13C14.4417 13 14.696 13.1054 14.8836 13.2929ZM18.8835 14.7071C18.696 14.8946 18.4417 15 18.1765 15C17.9112 15 17.6569 14.8946 17.4693 14.7071C17.2818 14.5196 17.1764 14.2652 17.1764 14C17.1764 13.7348 17.2818 13.4804 17.4693 13.2929C17.6569 13.1054 17.9112 13 18.1765 13C18.4417 13 18.696 13.1054 18.8835 13.2929C19.0711 13.4804 19.1765 13.7348 19.1765 14C19.1765 14.2652 19.0711 14.5196 18.8835 14.7071Z" fill="#E4F3F6"/>
<path d="M16.5294 17.6H15.8235C15.0438 17.6 14.4117 18.2367 14.4117 19.0222C14.4117 19.8077 15.0438 20.4444 15.8235 20.4444H16.5294C17.3091 20.4444 17.9412 19.8077 17.9412 19.0222C17.9412 18.2367 17.3091 17.6 16.5294 17.6Z" fill="#E4F3F6"/>
<path d="M15.2903 19.1046L16.0276 17.9373C16.1224 17.7872 16.353 17.8548 16.353 18.0327V18.8089C16.353 18.8285 16.3688 18.8444 16.3883 18.8444H16.8964C17.0392 18.8444 17.1228 19.0063 17.041 19.1241L16.3211 20.1602C16.2221 20.3026 16 20.2321 16 20.0582V19.4133C16 19.3937 15.9842 19.3778 15.9647 19.3778H15.4391C15.2999 19.3778 15.2155 19.2229 15.2903 19.1046Z" stroke="#98D5DC"/>
</g>
<defs>
<clipPath id="clip0_585_1049">
<rect width="18" height="16" fill="white" transform="translate(7 8)"/>
</clipPath>
</defs>
</svg>
