<svg width="51" height="45" viewBox="0 0 51 45" fill="none" xmlns="http://www.w3.org/2000/svg">
<g clip-path="url(#clip0_425_834)">
<path d="M12.5505 41.0537L11.5589 41.8447C11.2755 42.0645 10.9302 42.1875 10.576 42.1875C9.70833 42.1875 9 41.4844 9 40.623V16.875C9 7.55859 16.6146 0 26 0C35.3854 0 43 7.55859 43 16.875V40.623C43 41.4844 42.2917 42.1875 41.424 42.1875C41.0698 42.1875 40.7245 42.0645 40.4411 41.8447L39.4495 41.0537C38.263 40.1133 36.5453 40.2627 35.5448 41.3965L32.8443 44.4727C32.5521 44.8066 32.1182 45 31.6667 45C31.2151 45 30.7901 44.8066 30.4891 44.4727L28.1339 41.792C27.0094 40.5088 24.9995 40.5088 23.8661 41.792L21.5109 44.4727C21.2188 44.8066 20.7849 45 20.3333 45C19.8818 45 19.4568 44.8066 19.1557 44.4727L16.4552 41.3965C15.4547 40.2627 13.737 40.1133 12.5505 41.0537ZM23.1667 16.875C23.1667 16.1291 22.8682 15.4137 22.3368 14.8863C21.8054 14.3588 21.0848 14.0625 20.3333 14.0625C19.5819 14.0625 18.8612 14.3588 18.3299 14.8863C17.7985 15.4137 17.5 16.1291 17.5 16.875C17.5 17.6209 17.7985 18.3363 18.3299 18.8637C18.8612 19.3912 19.5819 19.6875 20.3333 19.6875C21.0848 19.6875 21.8054 19.3912 22.3368 18.8637C22.8682 18.3363 23.1667 17.6209 23.1667 16.875ZM31.6667 19.6875C32.4181 19.6875 33.1388 19.3912 33.6701 18.8637C34.2015 18.3363 34.5 17.6209 34.5 16.875C34.5 16.1291 34.2015 15.4137 33.6701 14.8863C33.1388 14.3588 32.4181 14.0625 31.6667 14.0625C30.9152 14.0625 30.1945 14.3588 29.6632 14.8863C29.1318 15.4137 28.8333 16.1291 28.8333 16.875C28.8333 17.6209 29.1318 18.3363 29.6632 18.8637C30.1945 19.3912 30.9152 19.6875 31.6667 19.6875Z" fill="#E4F3F6"/>
</g>
<path fill-rule="evenodd" clip-rule="evenodd" d="M25.5 31C39.5833 31 51 29.8807 51 28.5C51 27.1193 39.5833 26 25.5 26C11.4167 26 0 27.1193 0 28.5C0 29.8807 11.4167 31 25.5 31ZM25.5 30.5C38.4787 30.5 49 29.3284 49 28.5C49 27.6716 38.4787 26.5 25.5 26.5C12.5213 26.5 2 27.6716 2 28.5C2 29.3284 12.5213 30.5 25.5 30.5Z" fill="#98D5DC"/>
<path fill-rule="evenodd" clip-rule="evenodd" d="M9 16.875C9 7.55859 16.6146 0 26 0C35.3854 0 43 7.55859 43 16.875V28H9V16.875ZM22.3368 14.8863C22.8682 15.4137 23.1667 16.1291 23.1667 16.875C23.1667 17.6209 22.8682 18.3363 22.3368 18.8637C21.8054 19.3912 21.0848 19.6875 20.3333 19.6875C19.5819 19.6875 18.8612 19.3912 18.3299 18.8637C17.7985 18.3363 17.5 17.6209 17.5 16.875C17.5 16.1291 17.7985 15.4137 18.3299 14.8863C18.8612 14.3588 19.5819 14.0625 20.3333 14.0625C21.0848 14.0625 21.8054 14.3588 22.3368 14.8863ZM33.6701 18.8637C33.1388 19.3912 32.4181 19.6875 31.6667 19.6875C30.9152 19.6875 30.1945 19.3912 29.6632 18.8637C29.1318 18.3363 28.8333 17.6209 28.8333 16.875C28.8333 16.1291 29.1318 15.4137 29.6632 14.8863C30.1945 14.3588 30.9152 14.0625 31.6667 14.0625C32.4181 14.0625 33.1388 14.3588 33.6701 14.8863C34.2015 15.4137 34.5 16.1291 34.5 16.875C34.5 17.6209 34.2015 18.3363 33.6701 18.8637Z" fill="#E4F3F6"/>
<rect x="21" y="27" width="10" height="8" rx="4" fill="#E4F3F6"/>
<path d="M23.489 31.2316L25.5782 27.9486C25.8467 27.5266 26.5 27.7168 26.5 28.217V30.4C26.5 30.4552 26.5448 30.5 26.6 30.5H28.0397C28.4442 30.5 28.6813 30.9553 28.4493 31.2867L26.4096 34.2005C26.1293 34.601 25.5 34.4027 25.5 33.9138V32.1C25.5 32.0448 25.4552 32 25.4 32H23.9108C23.5163 32 23.2772 31.5644 23.489 31.2316Z" stroke="#98D5DC"/>
<defs>
<clipPath id="clip0_425_834">
<rect width="34" height="45" fill="white" transform="translate(9)"/>
</clipPath>
</defs>
</svg>
