<svg width="40" height="40" viewBox="0 0 40 40" fill="none" xmlns="http://www.w3.org/2000/svg">
<g clip-path="url(#clip0_585_1333)">
<path d="M14.1601 28.2461L13.7128 28.5977C13.5851 28.6953 13.4293 28.75 13.2696 28.75C12.8783 28.75 12.5588 28.4375 12.5588 28.0547V17.5C12.5588 13.3594 15.9929 10 20.2255 10C24.4581 10 27.8922 13.3594 27.8922 17.5V28.0547C27.8922 28.4375 27.5727 28.75 27.1814 28.75C27.0217 28.75 26.866 28.6953 26.7382 28.5977L26.291 28.2461C25.7559 27.8281 24.9812 27.8945 24.53 28.3984L23.3121 29.7656C23.1804 29.9141 22.9847 30 22.7811 30C22.5774 30 22.3857 29.9141 22.25 29.7656L21.1878 28.5742C20.6807 28.0039 19.7743 28.0039 19.2632 28.5742L18.201 29.7656C18.0693 29.9141 17.8736 30 17.6699 30C17.4663 30 17.2746 29.9141 17.1389 29.7656L15.921 28.3984C15.4698 27.8945 14.6951 27.8281 14.1601 28.2461ZM18.9477 17.5C18.9477 17.1685 18.8131 16.8505 18.5735 16.6161C18.3338 16.3817 18.0088 16.25 17.6699 16.25C17.3311 16.25 17.0061 16.3817 16.7664 16.6161C16.5268 16.8505 16.3922 17.1685 16.3922 17.5C16.3922 17.8315 16.5268 18.1495 16.7664 18.3839C17.0061 18.6183 17.3311 18.75 17.6699 18.75C18.0088 18.75 18.3338 18.6183 18.5735 18.3839C18.8131 18.1495 18.9477 17.8315 18.9477 17.5ZM22.7811 18.75C23.1199 18.75 23.445 18.6183 23.6846 18.3839C23.9242 18.1495 24.0588 17.8315 24.0588 17.5C24.0588 17.1685 23.9242 16.8505 23.6846 16.6161C23.445 16.3817 23.1199 16.25 22.7811 16.25C22.4422 16.25 22.1172 16.3817 21.8775 16.6161C21.6379 16.8505 21.5033 17.1685 21.5033 17.5C21.5033 17.8315 21.6379 18.1495 21.8775 18.3839C22.1172 18.6183 22.4422 18.75 22.7811 18.75Z" fill="#E4F3F6"/>
</g>
<path fill-rule="evenodd" clip-rule="evenodd" d="M20 23.7778C26.3513 23.7778 31.5 23.2803 31.5 22.6667C31.5 22.053 26.3513 21.5555 20 21.5555C13.6487 21.5555 8.5 22.053 8.5 22.6667C8.5 23.2803 13.6487 23.7778 20 23.7778ZM20 23.5555C25.8531 23.5555 30.598 23.0348 30.598 22.6667C30.598 22.2985 25.8531 21.7778 20 21.7778C14.1469 21.7778 9.40196 22.2985 9.40196 22.6667C9.40196 23.0348 14.1469 23.5555 20 23.5555Z" fill="#98D5DC"/>
<g clip-path="url(#clip1_585_1333)">
<path fill-rule="evenodd" clip-rule="evenodd" d="M12.5588 17.5C12.5588 13.3594 15.9929 10 20.2255 10C24.4581 10 27.8922 13.3594 27.8922 17.5V22.4444H12.5588V17.5ZM18.5735 16.6161C18.8131 16.8505 18.9477 17.1685 18.9477 17.5C18.9477 17.8315 18.8131 18.1495 18.5735 18.3839C18.3338 18.6183 18.0088 18.75 17.6699 18.75C17.3311 18.75 17.0061 18.6183 16.7664 18.3839C16.5268 18.1495 16.3922 17.8315 16.3922 17.5C16.3922 17.1685 16.5268 16.8505 16.7664 16.6161C17.0061 16.3817 17.3311 16.25 17.6699 16.25C18.0088 16.25 18.3338 16.3817 18.5735 16.6161ZM23.6846 18.3839C23.445 18.6183 23.1199 18.75 22.7811 18.75C22.4422 18.75 22.1172 18.6183 21.8775 18.3839C21.6379 18.1495 21.5033 17.8315 21.5033 17.5C21.5033 17.1685 21.6379 16.8505 21.8775 16.6161C22.1172 16.3817 22.4422 16.25 22.7811 16.25C23.1199 16.25 23.445 16.3817 23.6846 16.6161C23.9242 16.8505 24.0588 17.1685 24.0588 17.5C24.0588 17.8315 23.9242 18.1495 23.6846 18.3839Z" fill="#E4F3F6"/>
<rect x="17.9706" y="22" width="4.5098" height="3.55556" rx="1.77778" fill="#E4F3F6"/>
<path d="M19.3706 23.4509L19.5403 23.188C19.808 22.7735 20.451 22.9631 20.451 23.4565C20.451 23.5112 20.4953 23.5555 20.55 23.5555H20.61C21.0161 23.5555 21.2528 24.014 21.0176 24.345L20.8468 24.5856C20.5836 24.9561 20 24.7699 20 24.3154C20 24.2639 19.9582 24.2222 19.9067 24.2222H19.7906C19.3946 24.2222 19.1557 23.7836 19.3706 23.4509Z" stroke="#98D5DC"/>
</g>
<defs>
<clipPath id="clip0_585_1333">
<rect width="15.3333" height="20" fill="white" transform="translate(12.5588 10)"/>
</clipPath>
<clipPath id="clip1_585_1333">
<rect width="15.3333" height="20" fill="white" transform="translate(12.5588 10)"/>
</clipPath>
</defs>
</svg>
