<svg width="40" height="41" viewBox="0 0 40 41" fill="none" xmlns="http://www.w3.org/2000/svg">
<path d="M29.9446 17.2996C30.0772 17.6395 29.9653 18.0185 29.6793 18.2607L27.8848 19.8001C27.9304 20.1244 27.9552 20.4565 27.9552 20.7925C27.9552 21.1285 27.9304 21.4606 27.8848 21.7849L29.6793 23.3242C29.9653 23.5665 30.0772 23.9454 29.9446 24.2854C29.7622 24.7503 29.5425 25.1957 29.2897 25.6255L29.0949 25.9419C28.8214 26.3717 28.5147 26.778 28.179 27.1609C27.9345 27.4422 27.5284 27.536 27.1636 27.4266L24.8552 26.735C24.2998 27.1375 23.6865 27.4735 23.0317 27.7274L22.5136 29.9583C22.4307 30.3139 22.1406 30.5952 21.7593 30.6538C21.1874 30.7436 20.5989 30.7905 19.9979 30.7905C19.397 30.7905 18.8085 30.7436 18.2365 30.6538C17.8553 30.5952 17.5651 30.3139 17.4823 29.9583L16.9642 27.7274C16.3094 27.4735 15.696 27.1375 15.1407 26.735L12.8364 27.4305C12.4716 27.5399 12.0655 27.4422 11.821 27.1648C11.4853 26.7819 11.1786 26.3756 10.9051 25.9458L10.7103 25.6294C10.4575 25.1996 10.2378 24.7542 10.0554 24.2893C9.92282 23.9493 10.0347 23.5704 10.3207 23.3281L12.1152 21.7888C12.0696 21.4606 12.0448 21.1285 12.0448 20.7925C12.0448 20.4565 12.0696 20.1244 12.1152 19.8001L10.3207 18.2607C10.0347 18.0185 9.92282 17.6395 10.0554 17.2996C10.2378 16.8347 10.4575 16.3893 10.7103 15.9595L10.9051 15.643C11.1786 15.2133 11.4853 14.8069 11.821 14.424C12.0655 14.1427 12.4716 14.049 12.8364 14.1584L15.1448 14.8499C15.7002 14.4475 16.3135 14.1115 16.9683 13.8575L17.4864 11.6266C17.5693 11.2711 17.8594 10.9898 18.2407 10.9312C18.8126 10.8374 19.4011 10.7905 20.0021 10.7905C20.603 10.7905 21.1915 10.8374 21.7635 10.9273C22.1447 10.9859 22.4349 11.2672 22.5177 11.6227L23.0358 13.8536C23.6906 14.1076 24.304 14.4436 24.8593 14.846L27.1678 14.1545C27.5325 14.0451 27.9387 14.1427 28.1832 14.4201C28.5189 14.803 28.8256 15.2094 29.0991 15.6391L29.2939 15.9556C29.5467 16.3854 29.7663 16.8308 29.9487 17.2957L29.9446 17.2996ZM20.0021 23.9181C20.8814 23.9181 21.7247 23.5888 22.3465 23.0026C22.9683 22.4165 23.3176 21.6214 23.3176 20.7925C23.3176 19.9635 22.9683 19.1685 22.3465 18.5823C21.7247 17.9962 20.8814 17.6669 20.0021 17.6669C19.1227 17.6669 18.2794 17.9962 17.6576 18.5823C17.0358 19.1685 16.6865 19.9635 16.6865 20.7925C16.6865 21.6214 17.0358 22.4165 17.6576 23.0026C18.2794 23.5888 19.1227 23.9181 20.0021 23.9181Z" fill="#E4F3F6"/>
</svg>
